<svg xmlns="http://www.w3.org/2000/svg" xmlns:xlink="http://www.w3.org/1999/xlink" width="365" zoomAndPan="magnify" viewBox="0 0 273.75 124.499996" height="166" preserveAspectRatio="xMidYMid meet" version="1.0"><defs><g/><clipPath id="030fda4a55"><path d="M 5 50 L 34 50 L 34 95.082031 L 5 95.082031 Z M 5 50 " clip-rule="nonzero"/></clipPath><clipPath id="c5a84ecfe9"><path d="M 0.421875 56 L 7 56 L 7 62 L 0.421875 62 Z M 0.421875 56 " clip-rule="nonzero"/></clipPath><clipPath id="aa1861ddf2"><path d="M 44 27.105469 L 48 27.105469 L 48 29 L 44 29 Z M 44 27.105469 " clip-rule="nonzero"/></clipPath><clipPath id="eec5bb15e1"><path d="M 41 27.105469 L 52 27.105469 L 52 38 L 41 38 Z M 41 27.105469 " clip-rule="nonzero"/></clipPath><clipPath id="bc9f1ca723"><path d="M 69 44 L 75.121094 44 L 75.121094 51 L 69 51 Z M 69 44 " clip-rule="nonzero"/></clipPath></defs><g clip-path="url(#030fda4a55)"><path fill="#000000" d="M 30.660156 64.953125 C 30.699219 64.878906 30.738281 64.804688 30.777344 64.730469 C 32.492188 61.421875 32.179688 57.507812 29.957031 54.515625 C 27.746094 51.539062 24.121094 50.132812 20.503906 50.847656 C 20.355469 50.875 20.207031 50.90625 20.058594 50.9375 C 15.085938 51.980469 10.894531 54.957031 8.253906 59.320312 C 5.613281 63.683594 4.910156 68.796875 6.273438 73.714844 C 7.195312 77.050781 8.402344 80.222656 9.855469 83.148438 C 10.023438 83.488281 10.429688 83.625 10.765625 83.457031 C 11.101562 83.285156 11.238281 82.878906 11.070312 82.539062 C 9.65625 79.691406 8.480469 76.597656 7.582031 73.347656 C 6.320312 68.796875 6.972656 64.070312 9.414062 60.03125 C 11.859375 55.996094 15.738281 53.238281 20.339844 52.273438 C 20.480469 52.246094 20.621094 52.214844 20.765625 52.1875 C 23.871094 51.574219 26.976562 52.78125 28.871094 55.332031 C 30.777344 57.898438 31.050781 61.257812 29.578125 64.097656 C 29.542969 64.167969 29.503906 64.238281 29.46875 64.308594 C 26.78125 69.351562 27.148438 74.558594 30.53125 79.367188 C 31.964844 81.40625 32.480469 83.882812 31.988281 86.347656 C 31.496094 88.816406 29.992188 90.996094 27.871094 92.328125 C 23.957031 94.78125 18.828125 93.890625 15.9375 90.253906 C 15.703125 89.957031 15.277344 89.910156 14.984375 90.144531 C 14.691406 90.382812 14.644531 90.8125 14.878906 91.105469 C 16.933594 93.699219 19.984375 95.074219 23.074219 95.074219 C 24.972656 95.074219 26.882812 94.558594 28.589844 93.484375 C 31.03125 91.957031 32.753906 89.453125 33.320312 86.617188 C 33.886719 83.78125 33.292969 80.925781 31.640625 78.578125 C 28.53125 74.160156 28.203125 69.574219 30.664062 64.953125 Z M 30.660156 64.953125 " fill-opacity="1" fill-rule="nonzero"/></g><path fill="#000000" d="M 12.398438 85.027344 C 12.210938 84.699219 11.796875 84.589844 11.472656 84.777344 C 11.148438 84.96875 11.035156 85.382812 11.226562 85.710938 C 11.65625 86.457031 12.109375 87.195312 12.574219 87.910156 C 12.703125 88.109375 12.917969 88.21875 13.140625 88.21875 C 13.269531 88.21875 13.398438 88.183594 13.515625 88.105469 C 13.828125 87.898438 13.914062 87.476562 13.710938 87.160156 C 13.257812 86.46875 12.816406 85.75 12.402344 85.023438 Z M 12.398438 85.027344 " fill-opacity="1" fill-rule="nonzero"/><path fill="#000000" d="M 28.914062 38.992188 C 25.972656 38.992188 23.582031 41.398438 23.582031 44.355469 C 23.582031 46.140625 24.460938 47.804688 25.933594 48.804688 C 26.242188 49.015625 26.664062 48.933594 26.875 48.621094 C 27.085938 48.308594 27.003906 47.882812 26.691406 47.671875 C 25.59375 46.925781 24.9375 45.6875 24.9375 44.355469 C 24.9375 42.152344 26.722656 40.355469 28.914062 40.355469 C 31.105469 40.355469 32.890625 42.152344 32.890625 44.355469 C 32.890625 46.558594 31.105469 48.355469 28.914062 48.355469 C 28.539062 48.355469 28.234375 48.660156 28.234375 49.039062 C 28.234375 49.414062 28.539062 49.722656 28.914062 49.722656 C 31.855469 49.722656 34.25 47.316406 34.25 44.355469 C 34.25 41.398438 31.855469 38.992188 28.914062 38.992188 Z M 28.914062 38.992188 " fill-opacity="1" fill-rule="nonzero"/><path fill="#000000" d="M 18.949219 48.734375 C 20.972656 48.734375 22.621094 47.078125 22.621094 45.042969 C 22.621094 43.007812 20.972656 41.351562 18.949219 41.351562 C 16.925781 41.351562 15.277344 43.007812 15.277344 45.042969 C 15.277344 47.078125 16.925781 48.734375 18.949219 48.734375 Z M 18.949219 42.71875 C 20.226562 42.71875 21.261719 43.761719 21.261719 45.042969 C 21.261719 46.324219 20.226562 47.367188 18.949219 47.367188 C 17.675781 47.367188 16.636719 46.324219 16.636719 45.042969 C 16.636719 43.761719 17.675781 42.71875 18.949219 42.71875 Z M 18.949219 42.71875 " fill-opacity="1" fill-rule="nonzero"/><path fill="#000000" d="M 11.8125 52.023438 C 13.644531 52.023438 15.132812 50.527344 15.132812 48.683594 C 15.132812 46.84375 13.644531 45.34375 11.8125 45.34375 C 9.980469 45.34375 8.492188 46.84375 8.492188 48.683594 C 8.492188 50.527344 9.980469 52.023438 11.8125 52.023438 Z M 11.8125 46.710938 C 12.894531 46.710938 13.773438 47.597656 13.773438 48.683594 C 13.773438 49.773438 12.894531 50.660156 11.8125 50.660156 C 10.730469 50.660156 9.847656 49.773438 9.847656 48.683594 C 9.847656 47.597656 10.730469 46.710938 11.8125 46.710938 Z M 11.8125 46.710938 " fill-opacity="1" fill-rule="nonzero"/><path fill="#000000" d="M 6.28125 56.203125 C 6.65625 56.203125 6.960938 55.898438 6.960938 55.519531 C 6.960938 55.144531 6.65625 54.839844 6.28125 54.839844 C 5.363281 54.839844 4.617188 54.089844 4.617188 53.167969 C 4.617188 52.246094 5.363281 51.496094 6.28125 51.496094 C 7.195312 51.496094 7.941406 52.246094 7.941406 53.167969 C 7.941406 53.683594 7.710938 54.160156 7.308594 54.480469 C 7.015625 54.714844 6.964844 55.140625 7.195312 55.4375 C 7.429688 55.734375 7.855469 55.785156 8.152344 55.550781 C 8.882812 54.972656 9.300781 54.101562 9.300781 53.167969 C 9.300781 51.492188 7.949219 50.128906 6.28125 50.128906 C 4.617188 50.128906 3.261719 51.492188 3.261719 53.167969 C 3.261719 54.839844 4.617188 56.203125 6.28125 56.203125 Z M 6.28125 56.203125 " fill-opacity="1" fill-rule="nonzero"/><g clip-path="url(#c5a84ecfe9)"><path fill="#000000" d="M 3.285156 56.109375 C 1.707031 56.109375 0.421875 57.402344 0.421875 58.988281 C 0.421875 60.574219 1.707031 61.867188 3.285156 61.867188 C 4.863281 61.867188 6.148438 60.574219 6.148438 58.988281 C 6.148438 57.402344 4.863281 56.109375 3.285156 56.109375 Z M 3.285156 60.503906 C 2.457031 60.503906 1.78125 59.824219 1.78125 58.992188 C 1.78125 58.15625 2.457031 57.476562 3.285156 57.476562 C 4.113281 57.476562 4.789062 58.15625 4.789062 58.992188 C 4.789062 59.824219 4.113281 60.503906 3.285156 60.503906 Z M 3.285156 60.503906 " fill-opacity="1" fill-rule="nonzero"/></g><path fill="#000000" d="M 55.488281 39.085938 C 55.339844 39.054688 55.195312 39.023438 55.042969 38.996094 C 51.425781 38.285156 47.800781 39.691406 45.589844 42.664062 C 43.367188 45.65625 43.050781 49.570312 44.769531 52.882812 C 44.808594 52.953125 44.847656 53.03125 44.886719 53.105469 C 47.347656 57.726562 47.019531 62.308594 43.914062 66.730469 C 42.261719 69.078125 41.664062 71.933594 42.230469 74.769531 C 42.800781 77.601562 44.523438 80.105469 46.960938 81.636719 C 48.671875 82.707031 50.582031 83.226562 52.476562 83.226562 C 55.570312 83.226562 58.617188 81.847656 60.675781 79.253906 C 60.910156 78.960938 60.863281 78.53125 60.570312 78.296875 C 60.273438 78.058594 59.847656 78.109375 59.613281 78.402344 C 56.726562 82.039062 51.59375 82.933594 47.679688 80.476562 C 45.558594 79.144531 44.058594 76.964844 43.5625 74.5 C 43.070312 72.035156 43.589844 69.554688 45.023438 67.519531 C 48.40625 62.710938 48.773438 57.503906 46.082031 52.457031 C 46.046875 52.386719 46.007812 52.316406 45.972656 52.25 C 44.5 49.410156 44.769531 46.050781 46.679688 43.480469 C 48.578125 40.929688 51.683594 39.726562 54.785156 40.335938 C 54.929688 40.363281 55.070312 40.394531 55.210938 40.421875 C 59.8125 41.386719 63.691406 44.144531 66.136719 48.179688 C 68.578125 52.21875 69.230469 56.945312 67.96875 61.496094 C 66.5 66.789062 64.347656 71.578125 61.5625 75.734375 C 61.351562 76.046875 61.433594 76.46875 61.746094 76.679688 C 62.054688 76.890625 62.480469 76.808594 62.6875 76.496094 C 65.554688 72.21875 67.769531 67.296875 69.277344 61.863281 C 70.640625 56.945312 69.933594 51.835938 67.296875 47.46875 C 64.65625 43.105469 60.464844 40.128906 55.488281 39.082031 Z M 55.488281 39.085938 " fill-opacity="1" fill-rule="nonzero"/><g clip-path="url(#aa1861ddf2)"><path fill="#000000" d="M 45.417969 28.667969 C 45.472656 28.667969 45.535156 28.664062 45.59375 28.644531 C 45.847656 28.574219 46.113281 28.53125 46.378906 28.515625 C 46.753906 28.492188 47.039062 28.167969 47.015625 27.792969 C 46.992188 27.414062 46.667969 27.128906 46.296875 27.152344 C 45.9375 27.175781 45.582031 27.234375 45.238281 27.328125 C 44.878906 27.425781 44.664062 27.800781 44.761719 28.164062 C 44.84375 28.46875 45.117188 28.667969 45.417969 28.667969 Z M 45.417969 28.667969 " fill-opacity="1" fill-rule="nonzero"/></g><g clip-path="url(#eec5bb15e1)"><path fill="#000000" d="M 46.632812 37.871094 C 49.574219 37.871094 51.96875 35.464844 51.96875 32.507812 C 51.96875 30.195312 50.503906 28.148438 48.324219 27.414062 C 47.96875 27.296875 47.582031 27.488281 47.464844 27.847656 C 47.34375 28.203125 47.539062 28.59375 47.894531 28.710938 C 49.519531 29.257812 50.609375 30.78125 50.609375 32.507812 C 50.609375 34.710938 48.824219 36.503906 46.632812 36.503906 C 44.441406 36.503906 42.65625 34.710938 42.65625 32.507812 C 42.65625 31.230469 43.269531 30.023438 44.292969 29.273438 C 44.597656 29.050781 44.664062 28.625 44.441406 28.316406 C 44.21875 28.011719 43.792969 27.945312 43.492188 28.167969 C 42.117188 29.175781 41.296875 30.796875 41.296875 32.507812 C 41.296875 35.464844 43.6875 37.871094 46.632812 37.871094 Z M 46.632812 37.871094 " fill-opacity="1" fill-rule="nonzero"/></g><path fill="#000000" d="M 56.597656 36.886719 C 58.621094 36.886719 60.269531 35.230469 60.269531 33.195312 C 60.269531 31.160156 58.621094 29.503906 56.597656 29.503906 C 54.574219 29.503906 52.925781 31.160156 52.925781 33.195312 C 52.925781 35.230469 54.574219 36.886719 56.597656 36.886719 Z M 56.597656 30.867188 C 57.875 30.867188 58.910156 31.910156 58.910156 33.191406 C 58.910156 34.476562 57.875 35.519531 56.597656 35.519531 C 55.324219 35.519531 54.285156 34.476562 54.285156 33.191406 C 54.285156 31.910156 55.324219 30.867188 56.597656 30.867188 Z M 56.597656 30.867188 " fill-opacity="1" fill-rule="nonzero"/><path fill="#000000" d="M 63.734375 40.175781 C 65.566406 40.175781 67.058594 38.679688 67.058594 36.835938 C 67.058594 34.992188 65.566406 33.496094 63.734375 33.496094 C 61.902344 33.496094 60.414062 34.992188 60.414062 36.835938 C 60.414062 38.679688 61.902344 40.175781 63.734375 40.175781 Z M 63.734375 34.863281 C 64.816406 34.863281 65.699219 35.75 65.699219 36.835938 C 65.699219 37.925781 64.816406 38.808594 63.734375 38.808594 C 62.652344 38.808594 61.773438 37.925781 61.773438 36.835938 C 61.773438 35.75 62.652344 34.863281 63.734375 34.863281 Z M 63.734375 34.863281 " fill-opacity="1" fill-rule="nonzero"/><path fill="#000000" d="M 69.269531 44.355469 C 70.933594 44.355469 72.289062 42.992188 72.289062 41.320312 C 72.289062 39.644531 70.933594 38.28125 69.269531 38.28125 C 67.601562 38.28125 66.246094 39.644531 66.246094 41.320312 C 66.246094 42.992188 67.601562 44.355469 69.269531 44.355469 Z M 69.269531 39.644531 C 70.183594 39.644531 70.929688 40.394531 70.929688 41.316406 C 70.929688 42.238281 70.183594 42.988281 69.269531 42.988281 C 68.351562 42.988281 67.605469 42.238281 67.605469 41.316406 C 67.605469 40.394531 68.351562 39.644531 69.269531 39.644531 Z M 69.269531 39.644531 " fill-opacity="1" fill-rule="nonzero"/><g clip-path="url(#bc9f1ca723)"><path fill="#000000" d="M 72.261719 44.261719 C 70.683594 44.261719 69.398438 45.554688 69.398438 47.140625 C 69.398438 48.726562 70.683594 50.019531 72.261719 50.019531 C 73.839844 50.019531 75.125 48.726562 75.125 47.140625 C 75.125 45.554688 73.839844 44.261719 72.261719 44.261719 Z M 72.261719 48.65625 C 71.429688 48.65625 70.757812 47.976562 70.757812 47.144531 C 70.757812 46.308594 71.433594 45.628906 72.261719 45.628906 C 73.089844 45.628906 73.765625 46.308594 73.765625 47.144531 C 73.765625 47.976562 73.089844 48.65625 72.261719 48.65625 Z M 72.261719 48.65625 " fill-opacity="1" fill-rule="nonzero"/></g><g fill="#000000" fill-opacity="1"><g transform="translate(81.484434, 74.350148)"><g><path d="M 32.09375 -13.40625 C 32.269531 -13.664062 32.488281 -13.664062 32.75 -13.40625 C 33.007812 -13.226562 33.007812 -13.007812 32.75 -12.75 C 31.050781 -11.007812 29.207031 -9.753906 27.21875 -8.984375 C 25.238281 -8.222656 23.234375 -7.742188 21.203125 -7.546875 C 19.179688 -7.347656 17.191406 -7.226562 15.234375 -7.1875 C 14.753906 -7.1875 14.265625 -7.175781 13.765625 -7.15625 C 13.265625 -7.132812 12.773438 -7.125 12.296875 -7.125 C 11.066406 -4.070312 9.863281 -1.828125 8.6875 -0.390625 C 7.820312 0.691406 6.929688 1.472656 6.015625 1.953125 C 5.097656 2.441406 4.25 2.6875 3.46875 2.6875 C 2.632812 2.6875 1.957031 2.488281 1.4375 2.09375 C 0.65625 1.65625 0.195312 0.976562 0.0625 0.0625 C 0.0195312 0.0195312 0 -0.0078125 0 -0.03125 C 0 -0.0507812 0 -0.0625 0 -0.0625 L 0 -0.265625 C -0.0820312 -0.867188 0.046875 -1.476562 0.390625 -2.09375 C 1.265625 -3.75 2.320312 -4.976562 3.5625 -5.78125 C 4.800781 -6.59375 6.164062 -7.171875 7.65625 -7.515625 C 8.65625 -10.046875 9.773438 -13.359375 11.015625 -17.453125 C 12.253906 -21.546875 13.523438 -26.285156 14.828125 -31.671875 C 16.140625 -37.054688 17.363281 -42.882812 18.5 -49.15625 C 18.582031 -49.46875 18.757812 -49.664062 19.03125 -49.75 C 19.507812 -49.925781 20.128906 -49.828125 20.890625 -49.453125 C 21.648438 -49.085938 22.203125 -48.75 22.546875 -48.4375 C 23.035156 -48.050781 23.234375 -47.679688 23.140625 -47.328125 C 22.835938 -45.890625 22.4375 -44.003906 21.9375 -41.671875 C 21.4375 -39.335938 20.847656 -36.742188 20.171875 -33.890625 C 19.492188 -31.035156 18.75 -28.082031 17.9375 -25.03125 C 17.132812 -21.988281 16.296875 -19.003906 15.421875 -16.078125 C 14.554688 -13.160156 13.644531 -10.503906 12.6875 -8.109375 C 13.125 -8.109375 13.546875 -8.117188 13.953125 -8.140625 C 14.367188 -8.160156 14.796875 -8.171875 15.234375 -8.171875 C 17.191406 -8.210938 19.148438 -8.320312 21.109375 -8.5 C 23.078125 -8.675781 25 -9.125 26.875 -9.84375 C 28.75 -10.5625 30.488281 -11.75 32.09375 -13.40625 Z M 5.5625 -3.140625 C 5.78125 -3.484375 6.03125 -3.925781 6.3125 -4.46875 C 6.59375 -5.019531 6.882812 -5.664062 7.1875 -6.40625 C 5.96875 -6.0625 4.859375 -5.523438 3.859375 -4.796875 C 2.859375 -4.078125 1.984375 -3.023438 1.234375 -1.640625 C 0.972656 -1.203125 0.890625 -0.695312 0.984375 -0.125 C 1.066406 0.175781 1.21875 0.328125 1.4375 0.328125 C 1.738281 0.367188 2.257812 0.140625 3 -0.359375 C 3.75 -0.859375 4.601562 -1.785156 5.5625 -3.140625 Z M 5.5625 -3.140625 "/></g></g></g><g fill="#000000" fill-opacity="1"><g transform="translate(113.256267, 74.350148)"><g><path d="M 1.640625 -1.5625 C 0.847656 -1.832031 0.257812 -2.398438 -0.125 -3.265625 C -0.65625 -4.398438 -0.863281 -5.878906 -0.75 -7.703125 C -0.644531 -9.535156 -0.375 -11.46875 0.0625 -13.5 C 0.5 -15.53125 0.976562 -17.394531 1.5 -19.09375 C 2.019531 -20.789062 2.476562 -22.078125 2.875 -22.953125 C 3.007812 -23.378906 3.289062 -23.660156 3.71875 -23.796875 C 4.207031 -23.878906 4.601562 -23.8125 4.90625 -23.59375 L 5.953125 -22.953125 C 6.429688 -22.640625 6.753906 -22.203125 6.921875 -21.640625 C 7.097656 -21.078125 7.078125 -20.53125 6.859375 -20 C 6.160156 -18.382812 5.472656 -16.457031 4.796875 -14.21875 C 4.128906 -11.976562 3.6875 -9.875 3.46875 -7.90625 C 3.332031 -6.382812 3.375 -5.226562 3.59375 -4.4375 C 3.8125 -3.65625 4.03125 -3.203125 4.25 -3.078125 C 4.332031 -2.984375 4.460938 -3.003906 4.640625 -3.140625 L 4.703125 -3.140625 C 5.660156 -3.835938 6.609375 -4.804688 7.546875 -6.046875 C 8.484375 -7.285156 9.332031 -8.566406 10.09375 -9.890625 C 10.863281 -11.222656 11.441406 -12.304688 11.828125 -13.140625 C 11.867188 -13.222656 11.957031 -13.296875 12.09375 -13.359375 C 12.226562 -13.429688 12.335938 -13.425781 12.421875 -13.34375 C 12.722656 -13.164062 12.8125 -12.945312 12.6875 -12.6875 C 12.6875 -12.6875 12.347656 -12.039062 11.671875 -10.75 C 10.992188 -9.46875 10.15625 -8.085938 9.15625 -6.609375 C 6.757812 -3.160156 4.578125 -1.4375 2.609375 -1.4375 C 2.441406 -1.4375 2.28125 -1.445312 2.125 -1.46875 C 1.96875 -1.488281 1.804688 -1.519531 1.640625 -1.5625 Z M 7.0625 -25.296875 L 6.28125 -25.75 C 5.75 -26.019531 5.394531 -26.414062 5.21875 -26.9375 C 5.050781 -27.457031 5.078125 -27.976562 5.296875 -28.5 L 6.9375 -32.03125 C 7.144531 -32.382812 7.445312 -32.632812 7.84375 -32.78125 C 8.238281 -32.9375 8.65625 -32.90625 9.09375 -32.6875 L 9.28125 -32.625 C 10.113281 -32.1875 10.703125 -31.578125 11.046875 -30.796875 C 11.222656 -30.003906 11.132812 -29.21875 10.78125 -28.4375 L 9.28125 -25.890625 C 9.0625 -25.410156 8.601562 -25.171875 7.90625 -25.171875 C 7.78125 -25.171875 7.648438 -25.179688 7.515625 -25.203125 C 7.390625 -25.222656 7.238281 -25.253906 7.0625 -25.296875 Z M 7.0625 -25.296875 "/></g></g></g><g fill="#000000" fill-opacity="1"><g transform="translate(125.023613, 74.350148)"><g><path d="M 18.234375 -13.53125 C 18.492188 -13.351562 18.5625 -13.132812 18.4375 -12.875 C 18.394531 -12.75 18.085938 -12.148438 17.515625 -11.078125 C 16.953125 -10.015625 16.222656 -8.707031 15.328125 -7.15625 C 14.429688 -5.613281 13.445312 -4.054688 12.375 -2.484375 C 11.3125 -0.910156 10.21875 0.394531 9.09375 1.4375 C 8.34375 2.132812 7.664062 2.65625 7.0625 3 C 6.539062 3.269531 5.910156 3.40625 5.171875 3.40625 C 4.597656 3.40625 3.984375 3.296875 3.328125 3.078125 C 2.898438 2.898438 2.421875 2.59375 1.890625 2.15625 C 1.367188 1.71875 0.9375 1.066406 0.59375 0.203125 C -0.675781 -3.328125 -0.703125 -9.125 0.515625 -17.1875 C 1.390625 -22.894531 2.46875 -28.046875 3.75 -32.640625 C 5.039062 -37.242188 6.457031 -41.023438 8 -43.984375 C 9.550781 -46.953125 11.132812 -48.875 12.75 -49.75 C 13.96875 -50.363281 15.125 -50.40625 16.21875 -49.875 C 17.21875 -49.394531 17.804688 -48.546875 17.984375 -47.328125 L 18.046875 -47.265625 C 18.304688 -45.910156 18.207031 -44.195312 17.75 -42.125 C 17.289062 -40.0625 16.59375 -37.832031 15.65625 -35.4375 C 14.71875 -33.039062 13.640625 -30.640625 12.421875 -28.234375 C 11.203125 -25.835938 9.957031 -23.632812 8.6875 -21.625 C 7.425781 -19.625 6.226562 -18.015625 5.09375 -16.796875 C 5.09375 -16.753906 5.070312 -16.734375 5.03125 -16.734375 C 4.507812 -13.296875 4.191406 -10.460938 4.078125 -8.234375 C 3.972656 -6.015625 4.019531 -4.25 4.21875 -2.9375 C 4.414062 -1.632812 4.675781 -0.675781 5 -0.0625 C 5.320312 0.539062 5.640625 0.953125 5.953125 1.171875 C 6.515625 1.484375 7.066406 1.484375 7.609375 1.171875 C 8.160156 0.867188 8.4375 0.71875 8.4375 0.71875 L 8.5 0.71875 C 9.539062 -0.320312 10.59375 -1.613281 11.65625 -3.15625 C 12.726562 -4.707031 13.710938 -6.257812 14.609375 -7.8125 C 15.503906 -9.363281 16.222656 -10.660156 16.765625 -11.703125 C 17.304688 -12.742188 17.578125 -13.265625 17.578125 -13.265625 C 17.753906 -13.578125 17.972656 -13.664062 18.234375 -13.53125 Z M 5.75 -20.796875 L 5.359375 -18.5625 C 6.410156 -19.914062 7.519531 -21.5625 8.6875 -23.5 C 9.863281 -25.4375 11 -27.515625 12.09375 -29.734375 C 13.1875 -31.960938 14.144531 -34.175781 14.96875 -36.375 C 15.800781 -38.582031 16.410156 -40.625 16.796875 -42.5 C 17.191406 -44.375 17.28125 -45.894531 17.0625 -47.0625 C 16.976562 -47.414062 16.738281 -47.570312 16.34375 -47.53125 C 15.820312 -47.53125 15.144531 -47.113281 14.3125 -46.28125 C 13.488281 -45.457031 12.597656 -44.050781 11.640625 -42.0625 C 10.679688 -40.082031 9.6875 -37.359375 8.65625 -33.890625 C 7.632812 -30.429688 6.664062 -26.066406 5.75 -20.796875 Z M 5.75 -20.796875 "/></g></g></g><g fill="#000000" fill-opacity="1"><g transform="translate(142.478514, 74.350148)"><g><path d="M 26.609375 -13.46875 C 26.867188 -13.289062 26.910156 -13.070312 26.734375 -12.8125 C 25.554688 -11.332031 24.0625 -9.875 22.25 -8.4375 C 20.445312 -7 18.457031 -5.535156 16.28125 -4.046875 C 15.625 -0.171875 14.859375 3.570312 13.984375 7.1875 C 13.117188 10.8125 12.160156 14.023438 11.109375 16.828125 C 10.066406 19.640625 8.890625 21.832031 7.578125 23.40625 C 6.535156 24.707031 5.507812 25.71875 4.5 26.4375 C 3.5 27.15625 2.5 27.625 1.5 27.84375 C 1.019531 27.9375 0.5625 28.015625 0.125 28.078125 C -0.300781 28.140625 -0.734375 28.171875 -1.171875 28.171875 C -2.347656 28.171875 -3.375 28.007812 -4.25 27.6875 C -5.125 27.363281 -5.863281 27.023438 -6.46875 26.671875 C -7.300781 26.109375 -7.96875 25.5 -8.46875 24.84375 C -8.96875 24.1875 -9.257812 23.640625 -9.34375 23.203125 C -9.65625 22.378906 -9.742188 21.46875 -9.609375 20.46875 C -9.265625 18.195312 -8.457031 16.054688 -7.1875 14.046875 C -5.925781 12.046875 -4.347656 10.140625 -2.453125 8.328125 C -0.554688 6.523438 1.507812 4.816406 3.75 3.203125 C 6 1.585938 8.257812 0.0390625 10.53125 -1.4375 C 10.914062 -3.65625 11.28125 -5.851562 11.625 -8.03125 C 11.976562 -10.21875 12.265625 -12.3125 12.484375 -14.3125 C 11.878906 -12.613281 11.109375 -10.96875 10.171875 -9.375 C 9.234375 -7.789062 8.175781 -6.582031 7 -5.75 C 6.207031 -5.144531 5.359375 -4.84375 4.453125 -4.84375 C 4.273438 -4.84375 4.109375 -4.851562 3.953125 -4.875 C 3.796875 -4.894531 3.632812 -4.925781 3.46875 -4.96875 C 2.15625 -5.3125 1.21875 -6.097656 0.65625 -7.328125 C 0.0820312 -8.546875 -0.175781 -9.957031 -0.125 -11.5625 C -0.0820312 -13.175781 0.148438 -14.789062 0.578125 -16.40625 C 1.015625 -18.019531 1.476562 -19.375 1.96875 -20.46875 C 2.175781 -21.03125 2.546875 -21.378906 3.078125 -21.515625 C 3.640625 -21.722656 4.160156 -21.65625 4.640625 -21.3125 L 5.359375 -20.921875 C 5.835938 -20.617188 6.175781 -20.203125 6.375 -19.671875 C 6.570312 -19.148438 6.5625 -18.628906 6.34375 -18.109375 C 5.5625 -15.835938 5.0625 -13.875 4.84375 -12.21875 C 4.625 -10.5625 4.707031 -9.363281 5.09375 -8.625 C 5.269531 -8.28125 5.554688 -8.039062 5.953125 -7.90625 C 6.816406 -7.6875 7.476562 -7.785156 7.9375 -8.203125 C 8.394531 -8.617188 8.644531 -8.847656 8.6875 -8.890625 C 8.6875 -8.929688 8.710938 -8.953125 8.765625 -8.953125 C 9.585938 -10.128906 10.300781 -11.4375 10.90625 -12.875 C 11.519531 -14.3125 12.035156 -15.71875 12.453125 -17.09375 C 12.867188 -18.46875 13.140625 -19.566406 13.265625 -20.390625 L 13.59375 -24.390625 C 13.6875 -25.210938 14.144531 -25.800781 14.96875 -26.15625 C 15.84375 -26.457031 16.582031 -26.28125 17.1875 -25.625 L 17.390625 -25.4375 C 18.484375 -24.207031 18.894531 -22.550781 18.625 -20.46875 C 18.320312 -18.0625 17.992188 -15.582031 17.640625 -13.03125 C 17.296875 -10.488281 16.90625 -7.929688 16.46875 -5.359375 C 18.4375 -6.710938 20.25 -8.050781 21.90625 -9.375 C 23.5625 -10.707031 24.910156 -12.050781 25.953125 -13.40625 C 26.171875 -13.625 26.390625 -13.644531 26.609375 -13.46875 Z M 3.53125 21.703125 C 4.445312 20.484375 5.304688 18.738281 6.109375 16.46875 C 6.921875 14.207031 7.671875 11.640625 8.359375 8.765625 C 9.054688 5.890625 9.691406 2.925781 10.265625 -0.125 C 7.390625 1.789062 4.578125 3.804688 1.828125 5.921875 C -0.910156 8.035156 -3.238281 10.300781 -5.15625 12.71875 C -7.082031 15.132812 -8.238281 17.757812 -8.625 20.59375 C -8.757812 21.375 -8.71875 22.113281 -8.5 22.8125 L -8.4375 22.875 C -8.21875 23.570312 -7.867188 24.117188 -7.390625 24.515625 C -6.210938 25.648438 -4.617188 26.039062 -2.609375 25.6875 C -2.003906 25.5625 -1.09375 25.234375 0.125 24.703125 C 1.351562 24.179688 2.488281 23.179688 3.53125 21.703125 Z M 3.53125 21.703125 "/></g></g></g><g fill="#000000" fill-opacity="1"><g transform="translate(168.170554, 74.350148)"><g><path d="M 29.8125 -13.46875 C 30.070312 -13.289062 30.113281 -13.070312 29.9375 -12.8125 C 28.632812 -10.8125 27.085938 -9.023438 25.296875 -7.453125 C 23.515625 -5.878906 21.675781 -4.535156 19.78125 -3.421875 C 17.882812 -2.316406 16.0625 -1.414062 14.3125 -0.71875 C 13.875 -0.457031 13.375 -0.257812 12.8125 -0.125 L 12.75 -0.125 L 12.15625 0 L 11.828125 0 C 11.128906 0 10.5 -0.148438 9.9375 -0.453125 C 9.28125 -0.765625 8.710938 -1.179688 8.234375 -1.703125 C 8.054688 -1.921875 7.878906 -2.140625 7.703125 -2.359375 C 7.535156 -2.578125 7.34375 -2.816406 7.125 -3.078125 C 6.945312 -3.335938 6.988281 -3.550781 7.25 -3.71875 C 7.519531 -3.851562 7.757812 -3.8125 7.96875 -3.59375 C 8.144531 -3.375 8.304688 -3.15625 8.453125 -2.9375 C 8.609375 -2.71875 8.773438 -2.523438 8.953125 -2.359375 C 9.429688 -1.921875 9.910156 -1.765625 10.390625 -1.890625 C 11.390625 -2.066406 12.519531 -3.023438 13.78125 -4.765625 C 15.050781 -6.515625 16.363281 -8.828125 17.71875 -11.703125 C 19.375 -15.316406 20.351562 -18.039062 20.65625 -19.875 C 20.957031 -21.707031 20.894531 -22.84375 20.46875 -23.28125 C 20.03125 -23.707031 19.40625 -23.8125 18.59375 -23.59375 C 17.789062 -23.382812 17.191406 -23.171875 16.796875 -22.953125 C 14.921875 -21.378906 12.847656 -18.828125 10.578125 -15.296875 C 8.316406 -11.765625 6.207031 -7.253906 4.25 -1.765625 C 4.332031 -0.367188 4.460938 0.925781 4.640625 2.125 C 4.816406 3.320312 5.035156 4.359375 5.296875 5.234375 C 5.472656 5.710938 5.34375 6.082031 4.90625 6.34375 C 4.726562 6.519531 4.507812 6.609375 4.25 6.609375 C 4.164062 6.609375 4.078125 6.59375 3.984375 6.5625 C 3.898438 6.539062 3.8125 6.507812 3.71875 6.46875 L 2.15625 5.6875 C 0.976562 5.070312 0.28125 4.070312 0.0625 2.6875 C -0.0625 1.457031 -0.1875 -0.394531 -0.3125 -2.875 C -0.445312 -5.363281 -0.394531 -8.328125 -0.15625 -11.765625 C 0.0820312 -15.210938 0.632812 -18.984375 1.5 -23.078125 C 2.550781 -27.910156 3.648438 -31.984375 4.796875 -35.296875 C 5.953125 -38.609375 7.085938 -41.289062 8.203125 -43.34375 C 9.316406 -45.394531 10.332031 -46.953125 11.25 -48.015625 C 12.164062 -49.085938 12.882812 -49.84375 13.40625 -50.28125 C 14.101562 -50.84375 14.785156 -51.222656 15.453125 -51.421875 C 16.128906 -51.617188 16.90625 -51.539062 17.78125 -51.1875 C 18.613281 -50.84375 19.203125 -49.992188 19.546875 -48.640625 L 19.75 -47.796875 L 19.75 -47.71875 C 19.914062 -46.757812 19.910156 -45.375 19.734375 -43.5625 C 19.566406 -41.757812 19.015625 -39.484375 18.078125 -36.734375 C 17.140625 -33.992188 15.632812 -30.691406 13.5625 -26.828125 C 11.488281 -22.972656 8.625 -18.5 4.96875 -13.40625 C 4.832031 -13.269531 4.679688 -13.203125 4.515625 -13.203125 C 4.160156 -10.109375 4.03125 -7.125 4.125 -4.25 C 6.125 -9.4375 8.191406 -13.597656 10.328125 -16.734375 C 12.460938 -19.867188 14.398438 -22.15625 16.140625 -23.59375 C 16.140625 -23.6875 16.1875 -23.734375 16.28125 -23.734375 C 17.238281 -24.515625 18.175781 -25.082031 19.09375 -25.4375 C 20.269531 -25.863281 21.316406 -25.835938 22.234375 -25.359375 C 25.753906 -23.316406 25.707031 -18.375 22.09375 -10.53125 C 21.789062 -9.832031 21.210938 -8.738281 20.359375 -7.25 C 19.515625 -5.769531 18.523438 -4.398438 17.390625 -3.140625 C 19.523438 -4.273438 21.640625 -5.691406 23.734375 -7.390625 C 25.828125 -9.085938 27.632812 -11.070312 29.15625 -13.34375 C 29.332031 -13.6875 29.550781 -13.726562 29.8125 -13.46875 Z M 5.953125 -21.703125 C 5.691406 -20.566406 5.453125 -19.410156 5.234375 -18.234375 C 5.015625 -17.054688 4.835938 -15.878906 4.703125 -14.703125 C 7.710938 -18.972656 10.273438 -22.992188 12.390625 -26.765625 C 14.503906 -30.535156 16.101562 -34.015625 17.1875 -37.203125 C 18.144531 -39.898438 18.691406 -42.097656 18.828125 -43.796875 C 18.960938 -45.492188 18.941406 -46.757812 18.765625 -47.59375 C 18.765625 -47.726562 18.65625 -48.019531 18.4375 -48.46875 C 18.21875 -48.925781 17.867188 -49.179688 17.390625 -49.234375 L 17.328125 -49.234375 C 17.234375 -49.234375 17.046875 -49.132812 16.765625 -48.9375 C 16.484375 -48.738281 16.09375 -48.300781 15.59375 -47.625 C 15.09375 -46.945312 14.484375 -45.890625 13.765625 -44.453125 C 13.046875 -43.015625 12.207031 -41.054688 11.25 -38.578125 C 10.550781 -36.648438 9.851562 -34.628906 9.15625 -32.515625 C 8.457031 -30.410156 7.832031 -28.421875 7.28125 -26.546875 C 6.738281 -24.671875 6.296875 -23.054688 5.953125 -21.703125 Z M 5.953125 -21.703125 "/></g></g></g><g fill="#000000" fill-opacity="1"><g transform="translate(197.19667, 74.350148)"><g><path d="M 26.9375 -13.53125 C 27.238281 -13.351562 27.300781 -13.132812 27.125 -12.875 C 25.90625 -10.738281 24.769531 -8.863281 23.71875 -7.25 C 22.675781 -5.644531 21.675781 -4.296875 20.71875 -3.203125 L 20.59375 -3.078125 C 18.757812 -1.023438 17.171875 0 15.828125 0 C 15.734375 0 15.640625 -0.0078125 15.546875 -0.03125 C 15.460938 -0.0507812 15.378906 -0.0625 15.296875 -0.0625 C 14.378906 -0.28125 13.710938 -0.859375 13.296875 -1.796875 C 12.890625 -2.734375 12.640625 -3.679688 12.546875 -4.640625 C 12.460938 -5.898438 12.519531 -7.367188 12.71875 -9.046875 C 12.914062 -10.734375 13.226562 -12.488281 13.65625 -14.3125 C 12.832031 -12.832031 11.984375 -11.394531 11.109375 -10 C 10.242188 -8.601562 9.351562 -7.382812 8.4375 -6.34375 C 8.394531 -6.300781 8.347656 -6.253906 8.296875 -6.203125 C 8.253906 -6.160156 8.191406 -6.097656 8.109375 -6.015625 C 7.535156 -5.359375 6.953125 -4.789062 6.359375 -4.3125 C 5.773438 -3.832031 5.179688 -3.484375 4.578125 -3.265625 C 4.054688 -3.046875 3.578125 -2.9375 3.140625 -2.9375 C 2.742188 -2.9375 2.328125 -3.046875 1.890625 -3.265625 C 1.066406 -3.566406 0.457031 -4.332031 0.0625 -5.5625 C -0.375 -6.90625 -0.492188 -8.613281 -0.296875 -10.6875 C -0.0976562 -12.757812 0.359375 -14.945312 1.078125 -17.25 C 1.796875 -19.5625 2.742188 -21.742188 3.921875 -23.796875 C 4.097656 -24.234375 4.488281 -24.515625 5.09375 -24.640625 C 5.570312 -24.773438 6.03125 -24.664062 6.46875 -24.3125 L 6.9375 -24 C 7.363281 -23.6875 7.640625 -23.242188 7.765625 -22.671875 C 7.898438 -22.109375 7.863281 -21.585938 7.65625 -21.109375 C 6.300781 -17.847656 5.375 -15.132812 4.875 -12.96875 C 4.375 -10.8125 4.164062 -9.175781 4.25 -8.0625 C 4.332031 -6.957031 4.550781 -6.316406 4.90625 -6.140625 C 5.507812 -5.835938 6.050781 -5.828125 6.53125 -6.109375 C 7.007812 -6.390625 7.335938 -6.617188 7.515625 -6.796875 C 7.609375 -6.890625 7.65625 -6.9375 7.65625 -6.9375 L 7.71875 -7 C 8.9375 -8.394531 10.164062 -10.171875 11.40625 -12.328125 C 12.644531 -14.484375 13.8125 -16.71875 14.90625 -19.03125 C 15.78125 -21.8125 16.695312 -24.1875 17.65625 -26.15625 C 17.914062 -26.71875 18.328125 -27.066406 18.890625 -27.203125 C 19.503906 -27.410156 20.070312 -27.34375 20.59375 -27 L 20.984375 -26.734375 C 21.421875 -26.515625 21.710938 -26.195312 21.859375 -25.78125 C 22.015625 -25.375 21.984375 -24.953125 21.765625 -24.515625 C 19.765625 -19.410156 18.347656 -15.003906 17.515625 -11.296875 C 16.691406 -7.597656 16.5625 -5.097656 17.125 -3.796875 C 17.34375 -3.398438 17.601562 -3.132812 17.90625 -3 C 18.257812 -2.875 18.640625 -2.941406 19.046875 -3.203125 C 19.460938 -3.460938 19.757812 -3.660156 19.9375 -3.796875 C 19.9375 -3.796875 19.945312 -3.796875 19.96875 -3.796875 C 19.988281 -3.796875 20 -3.816406 20 -3.859375 C 20.832031 -4.773438 21.757812 -5.992188 22.78125 -7.515625 C 23.800781 -9.046875 24.96875 -10.988281 26.28125 -13.34375 C 26.457031 -13.644531 26.675781 -13.707031 26.9375 -13.53125 Z M 26.9375 -13.53125 "/></g></g></g><g fill="#000000" fill-opacity="1"><g transform="translate(223.34633, 74.350148)"><g><path d="M 27.71875 -13.46875 C 27.976562 -13.289062 28.019531 -13.070312 27.84375 -12.8125 C 26.625 -11.195312 25.078125 -9.625 23.203125 -8.09375 C 21.328125 -6.570312 19.28125 -5.03125 17.0625 -3.46875 C 16.40625 0.632812 15.640625 4.566406 14.765625 8.328125 C 13.898438 12.097656 12.953125 15.453125 11.921875 18.390625 C 10.898438 21.335938 9.757812 23.640625 8.5 25.296875 C 6.363281 27.953125 4.316406 29.5 2.359375 29.9375 C 1.878906 30.03125 1.421875 30.109375 0.984375 30.171875 C 0.546875 30.234375 0.109375 30.265625 -0.328125 30.265625 C -1.460938 30.265625 -2.453125 30.113281 -3.296875 29.8125 C -4.148438 29.507812 -4.859375 29.179688 -5.421875 28.828125 C -6.296875 28.222656 -7.003906 27.554688 -7.546875 26.828125 C -8.097656 26.109375 -8.4375 25.488281 -8.5625 24.96875 C -8.820312 24.101562 -8.890625 23.191406 -8.765625 22.234375 C -8.410156 19.878906 -7.601562 17.644531 -6.34375 15.53125 C -5.082031 13.414062 -3.515625 11.421875 -1.640625 9.546875 C 0.234375 7.671875 2.300781 5.882812 4.5625 4.1875 C 6.832031 2.488281 9.101562 0.851562 11.375 -0.71875 C 11.71875 -2.769531 12.039062 -4.828125 12.34375 -6.890625 C 12.65625 -8.960938 12.941406 -10.9375 13.203125 -12.8125 C 12.378906 -11.59375 11.34375 -10.1875 10.09375 -8.59375 C 8.851562 -7 7.554688 -5.722656 6.203125 -4.765625 C 6.160156 -4.765625 6.140625 -4.742188 6.140625 -4.703125 L 6.078125 -4.703125 C 5.597656 -4.359375 5.117188 -4.097656 4.640625 -3.921875 C 4.335938 -3.785156 4.007812 -3.675781 3.65625 -3.59375 C 3.3125 -3.507812 2.941406 -3.46875 2.546875 -3.46875 C 1.503906 -3.46875 0.65625 -3.769531 0 -4.375 C -1.476562 -5.726562 -1.648438 -8.148438 -0.515625 -11.640625 C 0.347656 -14.378906 1.457031 -16.578125 2.8125 -18.234375 C 4.164062 -19.890625 5.492188 -21.078125 6.796875 -21.796875 C 8.109375 -22.515625 9.132812 -22.789062 9.875 -22.625 C 11.3125 -22.363281 12.441406 -21.335938 13.265625 -19.546875 L 13.40625 -19.28125 L 13.796875 -18.046875 C 13.972656 -19.441406 14.113281 -20.726562 14.21875 -21.90625 C 14.320312 -23.082031 14.398438 -24.082031 14.453125 -24.90625 C 14.535156 -25.863281 14.992188 -26.472656 15.828125 -26.734375 C 16.785156 -27.046875 17.523438 -26.851562 18.046875 -26.15625 L 18.234375 -25.953125 C 19.285156 -24.734375 19.703125 -23.015625 19.484375 -20.796875 C 19.179688 -18.265625 18.851562 -15.632812 18.5 -12.90625 C 18.15625 -10.1875 17.765625 -7.472656 17.328125 -4.765625 C 19.367188 -6.210938 21.226562 -7.640625 22.90625 -9.046875 C 24.59375 -10.460938 25.976562 -11.914062 27.0625 -13.40625 C 27.238281 -13.625 27.457031 -13.644531 27.71875 -13.46875 Z M 4.375 23.59375 C 5.289062 22.289062 6.148438 20.460938 6.953125 18.109375 C 7.765625 15.753906 8.519531 13.0625 9.21875 10.03125 C 9.914062 7 10.546875 3.875 11.109375 0.65625 C 8.234375 2.65625 5.421875 4.765625 2.671875 6.984375 C -0.0664062 9.210938 -2.394531 11.585938 -4.3125 14.109375 C -6.226562 16.640625 -7.382812 19.390625 -7.78125 22.359375 C -7.90625 23.140625 -7.863281 23.925781 -7.65625 24.71875 L -7.578125 24.78125 C -7.410156 25.425781 -7.039062 26.035156 -6.46875 26.609375 C -5.207031 27.742188 -3.640625 28.113281 -1.765625 27.71875 C -1.203125 27.632812 -0.300781 27.296875 0.9375 26.703125 C 2.1875 26.117188 3.332031 25.082031 4.375 23.59375 Z M 13.34375 -14.90625 C 13.34375 -14.90625 13.34375 -14.914062 13.34375 -14.9375 C 13.34375 -14.957031 13.363281 -14.96875 13.40625 -14.96875 C 13.3125 -15.0625 13.265625 -15.148438 13.265625 -15.234375 C 13.222656 -16.015625 13.125 -16.734375 12.96875 -17.390625 C 12.820312 -18.046875 12.640625 -18.632812 12.421875 -19.15625 C 12.242188 -19.457031 11.945312 -19.726562 11.53125 -19.96875 C 11.125 -20.207031 10.722656 -20.285156 10.328125 -20.203125 C 10.066406 -20.160156 9.585938 -19.800781 8.890625 -19.125 C 8.191406 -18.445312 7.4375 -17.472656 6.625 -16.203125 C 5.820312 -14.941406 5.117188 -13.441406 4.515625 -11.703125 C 3.941406 -10.085938 3.675781 -8.722656 3.71875 -7.609375 C 3.769531 -6.503906 3.988281 -5.773438 4.375 -5.421875 C 4.632812 -5.160156 5.050781 -5.207031 5.625 -5.5625 C 6.707031 -6.300781 7.757812 -7.289062 8.78125 -8.53125 C 9.8125 -9.769531 10.738281 -10.988281 11.5625 -12.1875 C 12.394531 -13.382812 12.988281 -14.289062 13.34375 -14.90625 Z M 13.34375 -14.90625 "/></g></g></g></svg>